<?xml version="1.0" standalone="no"?>
<!DOCTYPE svg PUBLIC "-//W3C//DTD SVG 20010904//EN"
 "http://www.w3.org/TR/2001/REC-SVG-20010904/DTD/svg10.dtd">
<svg version="1.0" xmlns="http://www.w3.org/2000/svg"
 width="512.000000pt" height="512.000000pt" viewBox="0 0 512.000000 512.000000"
 preserveAspectRatio="xMidYMid meet">
<metadata>
Created by potrace 1.11, written by Peter Selinger 2001-2013
</metadata>
<g transform="translate(0.000000,512.000000) scale(0.100000,-0.100000)"
fill="#000000" stroke="none">
<path d="M546 5078 c2 -24 9 -135 14 -248 6 -113 13 -232 15 -265 2 -33 9
-150 15 -260 6 -110 15 -270 20 -355 4 -85 11 -163 15 -172 11 -27 -23 -29
690 42 165 17 383 39 485 50 102 11 255 27 340 35 390 38 625 68 636 81 8 10
13 158 18 472 3 251 9 503 12 560 l6 102 -75 0 c-53 0 -75 -4 -74 -12 3 -99
-4 -148 -28 -174 -31 -34 -41 -64 -24 -75 7 -4 16 -6 20 -4 10 7 20 -54 13
-81 -3 -13 -11 -24 -18 -24 -6 0 -4 -5 5 -10 13 -7 15 -24 12 -87 -1 -43 -3
-100 -3 -128 0 -27 -4 -66 -10 -85 -6 -22 -6 -38 0 -44 14 -14 12 -58 -4 -78
-20 -27 -46 -23 -46 6 0 14 -5 28 -11 32 -8 4 -7 9 2 15 11 7 12 12 2 29 -7
11 -13 30 -14 42 0 15 -2 18 -6 8 -3 -8 -11 -22 -18 -30 -7 -8 -16 -35 -20
-60 -4 -25 -18 -76 -30 -115 -23 -67 -26 -71 -69 -86 -24 -9 -48 -13 -53 -9
-4 5 -16 10 -26 12 -30 5 -48 72 -51 189 -2 58 -6 111 -10 118 -4 6 -10 35
-13 64 -7 70 6 81 81 72 31 -4 56 -11 56 -15 0 -4 15 -13 33 -21 49 -20 97
-53 97 -66 0 -7 11 -13 25 -13 24 0 25 2 20 53 -3 36 -11 57 -25 69 -17 13
-18 21 -10 43 5 14 10 33 10 41 0 17 -98 64 -133 64 -26 0 -55 26 -43 38 4 4
24 12 44 18 30 9 34 13 19 19 -11 5 -30 1 -50 -9 -31 -17 -34 -17 -76 2 -24
11 -62 38 -85 59 -52 50 -82 69 -124 77 -25 4 -32 2 -29 -7 2 -6 0 -20 -5 -31
-7 -12 -7 -21 0 -25 6 -3 13 -18 17 -32 8 -32 -12 -50 -69 -64 -47 -12 -54
-26 -55 -130 -1 -94 3 -104 61 -148 64 -49 63 -75 -3 -97 -47 -15 -79 -40 -79
-60 0 -6 -3 -9 -8 -7 -4 3 -39 -6 -77 -19 -45 -15 -93 -24 -134 -24 -60 0 -63
1 -45 15 18 15 15 15 -31 10 -80 -8 -466 -54 -510 -60 l-40 -6 -3 -136 c-3
-113 -7 -139 -20 -149 -18 -13 -269 -40 -279 -31 -14 15 -41 697 -27 698 5 0
36 2 69 4 116 8 117 9 120 145 2 92 13 133 42 145 33 15 42 13 38 -6 -2 -10 0
-21 6 -24 5 -4 3 -18 -6 -34 -15 -30 -16 -39 -15 -120 1 -67 13 -91 45 -91 42
0 57 36 49 121 -3 41 -10 84 -15 95 -4 12 -5 25 -2 28 10 10 3 99 -9 113 -15
19 -2 58 24 71 17 8 -51 11 -273 11 l-297 1 4 -42z m259 -118 c1 -47 6 -85 13
-92 15 -15 15 -49 2 -80 -5 -13 -14 -42 -20 -65 -7 -26 -17 -43 -25 -43 -12 0
-15 22 -16 123 -1 67 0 127 1 132 1 6 2 30 1 53 -2 47 15 80 32 63 6 -6 11
-47 12 -91z m1613 -272 c33 -29 34 -31 11 -25 -45 11 -99 37 -99 47 0 22 54 9
88 -22z m-238 -305 c0 -7 4 -13 10 -13 13 0 29 -64 24 -97 -3 -16 -6 -49 -8
-76 -1 -26 -6 -48 -11 -50 -25 -7 -53 147 -46 253 2 33 2 34 16 16 8 -11 15
-26 15 -33z m-199 -77 c2 -54 -1 -74 -13 -105 -7 -19 -11 -22 -17 -12 -7 11
-10 11 -14 0 -6 -16 -12 59 -8 111 1 19 7 37 12 38 5 2 9 13 9 25 1 42 30 -12
31 -57z m657 -79 c4 -74 -8 -90 -60 -85 -29 3 -33 7 -39 41 -6 35 -3 41 34 72
22 19 45 35 51 35 6 0 12 -27 14 -63z m-1048 -23 c0 -8 -5 -25 -11 -36 -16
-29 -31 -3 -16 29 12 26 27 31 27 7z"/>
<path d="M1285 5109 c-4 -6 3 -13 15 -16 21 -6 22 -20 4 -85 -9 -32 27 -20 65
22 46 50 95 60 96 20 1 -27 12 -50 24 -50 9 0 20 25 40 88 l10 32 -124 0 c-77
0 -126 -4 -130 -11z"/>
<path d="M1689 5068 c-6 -29 -20 -76 -29 -104 -10 -27 -21 -70 -24 -95 -7 -43
-6 -42 34 36 23 44 45 96 50 115 4 19 13 50 18 68 10 30 9 32 -13 32 -20 0
-25 -8 -36 -52z"/>
<path d="M2956 5019 c-10 -137 -14 -133 144 -126 69 4 170 11 225 16 55 6 177
18 270 26 497 44 736 65 790 69 33 3 132 12 220 20 88 9 212 21 275 27 230 21
235 22 238 47 l3 22 -1079 0 -1079 0 -7 -101z"/>
<path d="M1597 4753 c-4 -3 -7 -13 -7 -22 1 -13 3 -13 11 2 11 19 8 33 -4 20z"/>
<path d="M1570 4649 c-7 -27 -10 -53 -6 -56 3 -3 9 8 12 26 4 17 11 34 15 37
12 7 12 44 0 44 -5 0 -14 -23 -21 -51z"/>
<path d="M1368 4609 c-25 -14 -22 -29 6 -29 35 0 56 10 56 26 0 16 -37 18 -62
3z"/>
<path d="M1205 4585 l-30 -24 28 -1 c36 0 67 16 67 35 0 23 -31 18 -65 -10z"/>
<path d="M2710 3750 c-165 -18 -243 -44 -349 -114 -79 -53 -138 -116 -172
-185 -12 -25 -35 -65 -51 -88 -15 -23 -28 -44 -28 -48 0 -3 -9 -25 -19 -48
-11 -23 -26 -69 -34 -102 -21 -82 -47 -307 -47 -404 0 -115 13 -136 52 -86 11
14 28 25 38 25 27 0 32 14 35 94 2 39 7 85 11 101 7 27 6 29 -9 16 -10 -7 -17
-12 -18 -10 -6 36 -6 60 2 64 5 4 9 37 9 75 0 68 16 103 27 60 3 -11 11 -19
18 -16 7 2 16 1 21 -3 22 -20 87 -33 183 -37 99 -4 104 -3 127 20 20 19 32 23
62 19 90 -11 193 -7 202 7 7 12 13 12 37 0 15 -7 47 -12 71 -11 36 2 49 -3 90
-37 71 -60 262 -332 262 -375 0 -18 49 -83 58 -77 4 3 9 -7 12 -22 3 -15 12
-36 21 -46 17 -20 34 -69 30 -89 -1 -6 9 -20 23 -30 22 -17 98 -155 94 -171
-1 -7 7 -56 18 -110 5 -22 8 -23 53 -17 37 5 51 3 58 -8 4 -7 20 -22 36 -32
33 -21 34 -48 3 -94 -47 -71 -59 -200 -17 -186 42 13 70 -23 34 -44 -17 -9
-17 -11 2 -25 29 -22 40 -14 38 27 -2 28 2 36 20 41 14 3 26 0 33 -9 6 -8 23
-15 37 -15 32 0 67 -35 67 -66 0 -13 9 -29 21 -37 17 -12 19 -21 13 -53 -5
-29 -3 -40 10 -49 23 -17 8 -54 -36 -89 -18 -15 -44 -36 -56 -46 -13 -11 -34
-20 -47 -20 -17 0 -25 -7 -27 -22 -2 -11 -10 -22 -18 -23 -23 -4 -22 50 1 90
17 29 19 38 9 50 -10 12 -9 20 3 39 12 17 13 26 4 35 -6 6 -7 11 -2 11 5 0 0
6 -11 14 -17 13 -21 12 -39 -4 -20 -18 -86 -31 -154 -30 -26 0 -42 -7 -63 -31
-35 -38 -27 -56 13 -27 27 21 30 21 46 5 14 -13 14 -21 5 -42 -14 -30 -58 -35
-64 -7 -3 14 -8 13 -32 -11 -22 -22 -27 -34 -21 -55 3 -15 6 -35 5 -44 -1 -19
-1 -69 -1 -90 1 -54 -8 -130 -18 -141 -6 -8 -8 -27 -5 -46 5 -22 2 -37 -10
-50 -16 -18 -15 -21 11 -64 19 -32 35 -47 52 -49 34 -4 37 -23 8 -50 -35 -33
-50 -65 -34 -71 7 -4 6 -6 -5 -6 -11 -1 -15 -7 -11 -20 3 -12 -4 -28 -18 -42
-20 -20 -21 -23 -6 -34 22 -16 21 -37 -2 -66 -19 -24 -19 -24 1 -46 20 -21 18
-63 -3 -63 -14 0 -11 -20 6 -36 8 -9 15 -22 15 -29 0 -7 -7 -20 -15 -29 -19
-19 -19 -25 1 -47 16 -18 12 -59 -7 -59 -14 0 -11 -26 6 -40 19 -16 19 -39 -1
-61 -14 -16 -14 -20 1 -43 16 -24 16 -28 1 -51 -13 -20 -14 -28 -4 -44 9 -15
9 -25 0 -45 l-12 -26 329 0 c282 0 330 2 341 15 10 13 10 19 -4 33 -28 32 -18
68 36 127 18 19 18 20 -2 27 -28 10 -36 35 -17 56 15 16 11 17 -51 17 -74 0
-74 0 -49 70 19 50 50 75 96 76 62 2 85 13 102 49 15 31 15 39 2 80 -16 50
-26 124 -25 184 0 46 23 72 97 111 l50 26 3 -71 c2 -53 -1 -79 -13 -97 -15
-23 -15 -25 7 -43 13 -11 33 -19 46 -20 15 0 22 -6 22 -20 0 -11 7 -23 15 -26
8 -4 15 -15 15 -25 0 -31 -21 -111 -41 -157 -19 -42 -19 -43 1 -64 13 -14 20
-36 20 -59 0 -45 -35 -80 -102 -99 l-44 -13 7 -52 c4 -29 12 -62 19 -75 15
-27 10 -32 -43 -41 -23 -3 114 -7 305 -8 l346 -1 12 38 c6 20 15 46 19 57 5
11 14 33 20 48 6 15 11 52 11 82 0 34 5 59 15 69 8 8 15 30 15 50 0 19 5 38
11 42 11 6 10 20 -11 143 -7 48 -7 74 1 99 7 20 9 57 5 87 -4 34 -2 57 7 67
12 15 60 35 111 44 14 2 38 9 53 15 26 10 27 12 8 19 -18 7 -19 8 -2 15 9 4
17 17 17 29 l0 22 -72 -23 c-40 -13 -88 -31 -106 -39 -39 -18 -64 -15 -68 8
-2 16 -16 47 -41 93 -7 11 -30 60 -54 108 -23 49 -48 91 -55 94 -9 3 -12 13
-8 28 4 15 0 24 -10 28 -9 4 -16 13 -16 21 0 8 -6 21 -12 28 -7 7 -24 33 -37
58 -13 25 -29 52 -36 60 -6 8 -26 40 -45 70 -18 30 -39 59 -46 63 -8 4 -23 25
-33 45 -21 42 -100 108 -256 215 -65 44 -185 85 -375 126 -49 11 -109 30 -119
37 -2 2 23 32 56 68 79 86 107 140 144 282 52 196 45 412 -22 616 -34 106 -68
174 -172 348 -133 223 -279 350 -470 411 -216 69 -405 96 -557 79z m-51 -76
c3 -3 -3 -12 -12 -21 -15 -16 -18 -15 -37 2 -29 26 -25 38 13 30 17 -4 34 -9
36 -11z m91 -139 c-7 -8 -16 -15 -20 -15 -4 0 -10 7 -14 15 -4 11 2 15 21 15
21 0 24 -2 13 -15z m-67 -15 c-3 -11 -12 -20 -19 -20 -16 0 -16 2 -8 24 9 24
33 20 27 -4z m-113 -26 c0 -8 -4 -12 -10 -9 -5 3 -10 0 -10 -8 0 -10 -7 -13
-20 -10 -25 7 -26 19 -2 32 25 15 42 13 42 -5z m250 -9 c-14 -16 -40 -20 -40
-6 0 10 17 19 39 20 11 1 11 -2 1 -14z m-126 -10 c-4 -8 -8 -15 -10 -15 -2 0
-4 7 -4 15 0 8 4 15 10 15 5 0 7 -7 4 -15z m601 -95 c-3 -5 -11 -10 -16 -10
-6 0 -7 5 -4 10 3 6 11 10 16 10 6 0 7 -4 4 -10z m-600 -40 c-3 -5 -11 -10
-16 -10 -6 0 -7 5 -4 10 3 6 11 10 16 10 6 0 7 -4 4 -10z m520 -30 c-3 -5 -12
-10 -18 -10 -7 0 -6 4 3 10 19 12 23 12 15 0z m-170 -110 c-3 -5 -12 -10 -18
-10 -7 0 -6 4 3 10 19 12 23 12 15 0z m445 -570 c0 -5 -10 -10 -22 -10 -19 0
-20 2 -8 10 19 13 30 13 30 0z m20 -90 c-8 -5 -22 -10 -30 -10 -13 0 -13 1 0
10 8 5 22 10 30 10 13 0 13 -1 0 -10z m-83 -106 c-3 -3 -12 -4 -19 -1 -8 3 -5
6 6 6 11 1 17 -2 13 -5z m1063 -916 c0 -13 11 -41 25 -63 13 -22 25 -52 25
-67 0 -19 8 -31 28 -40 20 -10 29 -24 35 -53 12 -57 21 -70 47 -71 30 -2 42
-22 36 -61 -3 -20 0 -33 6 -33 6 0 6 -6 -2 -15 -14 -17 -35 -21 -25 -4 8 11
-22 38 -43 39 -7 0 -16 -10 -21 -22 -13 -35 20 -60 68 -52 45 7 51 0 54 -56 1
-44 -24 -87 -63 -107 -29 -14 -53 -6 -45 16 15 36 22 111 11 111 -22 0 -63
-35 -59 -50 3 -10 0 -9 -7 3 -6 9 -16 17 -22 17 -14 0 0 -69 18 -88 13 -13 13
-17 -2 -33 -16 -18 -32 -23 -116 -34 -46 -6 -48 -5 -68 27 -16 25 -20 44 -16
81 2 27 11 55 18 64 9 12 12 44 10 119 -4 111 -3 114 62 175 35 33 27 49 -25
49 -28 0 -39 4 -39 15 0 9 -24 26 -60 42 -33 14 -60 29 -60 33 0 14 70 70 87
70 9 0 31 -11 49 -25 33 -25 43 -23 57 18 9 25 37 21 37 -5z m-529 -179 c25
-8 45 -25 68 -60 42 -61 37 -79 -23 -79 -25 0 -55 -4 -68 -9 -16 -6 -37 -4
-61 4 -41 14 -47 11 -47 -20 0 -12 -11 -39 -25 -59 -20 -30 -24 -44 -19 -76 6
-36 3 -43 -28 -72 -90 -85 -97 -89 -136 -82 -57 11 -102 33 -102 49 0 9 23 49
50 91 28 41 50 77 50 79 0 3 14 24 31 49 24 33 31 54 31 86 -1 24 5 48 11 55
18 18 58 25 79 14 15 -8 26 -4 52 19 35 31 62 33 137 11z m-251 -3 c0 -3 -4
-8 -10 -11 -5 -3 -10 -1 -10 4 0 6 5 11 10 11 6 0 10 -2 10 -4z m1041 -493 c3
-59 -3 -109 -17 -123 -7 -9 -37 -24 -66 -34 -64 -23 -76 -32 -60 -48 25 -25 3
-105 -35 -127 -15 -8 -16 -10 -3 -14 8 -3 23 -8 33 -11 29 -9 19 -34 -32 -84
-107 -102 -171 -152 -197 -152 -26 0 -26 1 -11 18 10 10 17 26 17 34 0 9 12
19 28 24 20 5 23 8 10 11 -19 5 -25 33 -8 33 6 0 10 5 10 10 0 6 9 30 20 52
11 23 20 48 20 55 0 13 61 140 104 215 19 32 25 54 21 71 -14 54 32 90 119 95
44 2 46 1 47 -25z m-1104 6 c27 -9 31 -16 37 -62 4 -28 12 -54 18 -58 5 -3 10
-21 11 -40 2 -34 2 -34 -53 -40 -30 -4 -68 -12 -84 -18 -39 -16 -82 2 -102 40
-8 16 -21 29 -29 29 -24 0 -27 18 -9 56 20 42 79 84 132 95 20 3 40 7 43 8 3
0 20 -4 36 -10z m811 -625 c12 -4 22 -12 22 -18 0 -7 18 -22 40 -35 22 -12 40
-26 40 -30 0 -16 -25 -31 -52 -31 -15 0 -51 -9 -80 -21 -71 -28 -141 -40 -149
-27 -7 11 72 115 113 151 22 18 31 20 66 11z"/>
<path d="M4482 1018 c-19 -19 -14 -48 7 -48 24 0 32 21 17 43 -10 12 -15 14
-24 5z"/>
<path d="M2120 2495 c0 -16 -42 -31 -58 -21 -6 3 -17 -5 -26 -18 -19 -30 -3
-48 35 -39 60 14 127 53 90 53 -5 0 -11 9 -14 20 -6 23 -27 27 -27 5z"/>
<path d="M2163 2432 c-16 -2 -24 -12 -27 -35 -6 -44 -3 -77 6 -71 4 3 8 -2 8
-11 0 -8 -11 -20 -25 -25 -14 -5 -25 -11 -25 -13 0 -13 34 -68 56 -92 20 -22
23 -30 12 -36 -7 -5 -16 -9 -20 -9 -14 0 -8 -30 5 -30 24 0 65 -91 60 -131 -5
-40 12 -62 22 -29 3 11 11 20 16 20 5 0 9 9 9 20 0 27 23 100 32 100 11 0 47
104 52 152 l5 43 -19 -25 c-10 -13 -16 -28 -14 -32 11 -17 -22 -35 -54 -30
-38 5 -51 21 -28 34 9 5 16 19 16 32 0 20 27 56 43 56 3 0 13 -7 21 -16 15
-14 16 -14 16 4 0 38 -125 130 -167 124z"/>
<path d="M2645 2292 c-36 -19 -19 -27 28 -14 25 7 39 6 47 -2 9 -8 14 -8 17 0
2 7 13 10 23 7 11 -3 20 0 20 6 0 6 -6 11 -12 12 -73 5 -97 4 -123 -9z"/>
<path d="M2706 2236 c-22 -13 -45 -22 -52 -19 -7 2 -15 0 -19 -6 -4 -7 4 -11
19 -11 14 0 28 -4 31 -10 3 -5 15 -10 26 -10 11 0 32 -13 46 -30 13 -16 34
-30 44 -30 23 0 69 42 69 63 0 19 -47 28 -54 11 -3 -8 -13 -14 -23 -14 -15 0
-15 1 2 13 10 8 15 19 11 25 -3 5 0 12 6 15 13 5 -33 27 -55 27 -7 0 -30 -11
-51 -24z"/>
<path d="M3402 2089 c-7 -10 -12 -25 -12 -33 0 -8 -7 -16 -15 -20 -8 -3 -20
-17 -27 -31 -6 -14 -17 -25 -24 -25 -6 0 -15 -11 -18 -25 -3 -13 -18 -35 -32
-48 -14 -13 -26 -30 -28 -38 -7 -36 -29 -107 -42 -136 -8 -17 -14 -44 -14 -59
0 -28 0 -28 19 -8 10 11 30 39 45 62 16 26 40 48 63 57 43 18 55 33 47 58 -3
9 -2 17 3 17 5 0 16 30 26 68 10 37 22 81 27 98 19 60 7 103 -18 63z m-112
-203 c0 -3 -4 -8 -10 -11 -5 -3 -10 -1 -10 4 0 6 5 11 10 11 6 0 10 -2 10 -4z"/>
<path d="M2160 2070 c0 -6 -4 -8 -10 -5 -13 8 -13 -6 0 -25 9 -13 11 -13 20 0
12 19 12 27 0 35 -5 3 -10 1 -10 -5z"/>
<path d="M1913 1860 c-32 -17 -67 -41 -78 -53 -11 -12 -37 -30 -57 -41 -21
-10 -34 -24 -32 -31 3 -7 -6 -15 -21 -19 -14 -4 -23 -11 -20 -16 3 -6 -4 -10
-17 -10 -13 -1 -36 -12 -53 -26 -16 -15 -23 -24 -15 -22 64 21 62 21 50 1 -14
-21 -90 -68 -90 -55 0 4 5 13 12 20 6 6 9 15 5 19 -10 10 -90 -49 -102 -75 -5
-12 -15 -22 -21 -22 -18 0 -205 -164 -193 -169 6 -2 14 1 18 5 6 10 57 34 69
34 4 -1 -6 -8 -22 -17 -68 -37 -175 -125 -214 -177 -24 -31 -39 -56 -35 -56 4
0 13 -11 20 -25 10 -23 9 -25 -17 -25 -18 0 -30 6 -32 16 -3 15 -6 14 -26 -2
-14 -12 -28 -43 -38 -84 -9 -36 -22 -72 -29 -80 -7 -8 -45 -79 -84 -157 -39
-78 -89 -169 -111 -202 -33 -49 -43 -77 -56 -147 -17 -103 -9 -123 31 -75 15
17 33 31 41 31 8 0 19 11 24 24 13 36 48 54 105 54 59 0 102 -20 110 -51 4
-12 21 -29 38 -37 24 -11 31 -21 30 -38 -2 -16 5 -26 23 -34 14 -7 32 -27 40
-46 13 -31 12 -38 -1 -58 -8 -13 -15 -30 -15 -38 0 -7 -7 -16 -15 -20 -9 -3
-12 -12 -9 -21 4 -9 -3 -26 -15 -39 -18 -19 -21 -31 -16 -60 7 -34 9 -36 46
-36 28 0 39 4 39 15 0 18 37 93 54 111 21 20 72 43 82 36 5 -4 10 -29 10 -57
1 -27 3 -62 5 -77 l4 -28 597 0 c596 0 597 0 609 21 9 17 7 24 -10 40 -20 19
-20 39 1 66 6 7 2 13 -11 18 -17 5 -91 73 -137 126 -8 9 -14 27 -14 42 0 14
-6 28 -12 31 -9 3 -8 8 5 16 9 6 15 15 12 21 -4 5 0 9 7 9 8 1 6 6 -6 15 -10
8 -23 12 -27 9 -14 -8 -11 20 3 34 9 9 8 12 -6 12 -15 0 -17 6 -12 33 6 33 6
33 -24 29 -32 -5 -70 19 -70 43 0 7 -15 32 -32 56 -18 24 -44 64 -58 88 -20
35 -32 45 -55 48 -39 5 -115 45 -115 60 0 7 -8 13 -19 13 -10 0 -40 25 -66 55
-53 62 -51 79 10 91 61 11 100 -15 137 -93 16 -34 28 -45 57 -53 27 -7 39 -17
48 -40 7 -18 18 -30 30 -30 10 0 35 -18 56 -39 34 -35 38 -43 32 -72 -7 -29
-5 -31 14 -26 17 4 24 0 31 -19 6 -15 18 -24 32 -24 13 0 34 -9 48 -20 14 -11
33 -20 43 -20 16 0 16 2 -3 30 -11 17 -30 45 -42 63 -12 17 -72 96 -135 173
-76 96 -121 143 -137 146 l-24 5 19 -31 c10 -17 19 -40 19 -50 0 -18 -1 -18
-17 2 -42 50 -54 68 -59 89 -3 12 -12 24 -20 27 -8 3 -14 19 -14 36 0 16 -4
30 -8 30 -12 0 -32 47 -32 75 0 13 -16 50 -35 82 -19 32 -35 66 -35 76 0 10
-7 20 -15 23 -21 9 -81 103 -77 124 2 10 -4 20 -11 23 -22 8 -84 117 -91 156
-5 36 -5 36 79 111 11 10 52 34 90 55 83 44 97 54 89 67 -4 6 -1 14 6 18 8 5
8 10 2 14 -5 3 -36 -8 -69 -24z m-303 -1118 c0 -10 20 -37 45 -60 35 -32 45
-49 45 -73 0 -30 1 -31 33 -25 26 5 40 1 60 -14 21 -17 27 -18 34 -6 16 27 96
55 141 49 50 -7 55 -12 54 -64 -1 -36 1 -39 19 -34 12 4 27 1 37 -8 9 -8 27
-18 38 -21 26 -8 37 -69 22 -122 -7 -27 -18 -39 -43 -50 -19 -8 -43 -14 -54
-14 -28 0 -34 -28 -11 -47 34 -29 24 -57 -42 -125 l-62 -63 -86 -3 c-83 -4
-86 -3 -99 21 -7 14 -11 36 -7 50 8 32 0 38 -31 22 -22 -12 -32 -12 -62 1 -20
8 -46 28 -58 43 -12 16 -36 31 -53 34 -25 6 -30 11 -30 36 0 39 28 71 69 79
33 7 34 8 36 65 2 31 -1 57 -6 57 -5 0 -9 -4 -9 -9 0 -21 -93 -51 -175 -57
-97 -6 -98 -5 -65 69 24 55 64 85 122 95 l43 7 -3 41 c-3 40 16 103 39 131 17
20 59 17 59 -5z m696 -404 c-11 -87 -81 -168 -144 -168 -35 0 -57 54 -43 108
11 38 18 45 79 77 37 19 78 34 91 35 23 0 23 -2 17 -52z"/>
<path d="M5005 1869 c-4 -6 -5 -13 -1 -16 8 -8 56 6 56 17 0 13 -47 13 -55 -1z"/>
<path d="M2174 1807 c-10 -18 -19 -41 -20 -52 0 -11 -7 -37 -14 -57 -17 -47
-56 -54 -66 -13 -4 15 -13 25 -24 25 -28 0 -33 -17 -11 -39 33 -33 49 -63 74
-141 21 -64 53 -138 86 -200 4 -8 17 -16 29 -18 11 -2 23 -9 25 -15 2 -7 3 -4
1 6 -2 18 28 41 40 30 3 -3 6 2 6 13 1 18 1 18 11 2 12 -22 29 -23 29 -3 0 8
6 12 14 9 8 -3 17 -1 20 5 4 6 -9 17 -29 25 -32 14 -39 23 -32 43 4 12 28 13
97 3 35 -5 67 -7 69 -4 9 9 -21 22 -65 29 -23 3 -67 20 -98 36 -44 24 -56 36
-56 55 0 16 -8 28 -25 36 -14 6 -25 15 -25 20 0 5 -4 7 -9 4 -12 -8 -51 55
-51 81 0 12 8 27 17 34 15 13 16 11 10 -17 -5 -28 -4 -31 19 -28 13 1 24 -1
24 -5 0 -4 16 -5 36 -3 l36 4 -26 23 c-14 12 -26 27 -26 33 0 6 -8 17 -18 24
-12 9 -17 24 -16 46 2 44 -9 47 -32 9z m26 -318 c0 -10 -6 -19 -14 -19 -17 0
-28 38 -12 43 17 6 26 -2 26 -24z"/>
<path d="M2001 1821 c-11 -7 -12 -13 -3 -23 8 -10 8 -18 1 -25 -8 -8 -6 -19 7
-37 21 -34 44 -19 26 16 -6 13 -13 35 -14 50 -2 21 -6 25 -17 19z"/>
<path d="M4417 1771 c28 -16 64 -31 80 -35 15 -3 -3 10 -41 29 -83 42 -112 46
-39 6z"/>
<path d="M4899 1745 c-1 0 -3 -13 -5 -29 -1 -15 -11 -37 -21 -48 -17 -19 -17
-21 6 -39 13 -10 34 -19 47 -19 13 0 24 -5 24 -11 0 -7 8 -6 23 3 27 18 85 6
104 -22 22 -31 43 -14 43 34 0 59 -10 87 -29 85 -9 -1 -32 0 -51 1 -32 2 -33
3 -10 9 24 7 24 8 -12 20 -21 7 -42 10 -48 6 -5 -3 -10 -2 -10 3 0 5 -13 9
-30 8 -16 -1 -30 -1 -31 -1z m48 -87 c-3 -8 -6 -5 -6 6 -1 11 2 17 5 13 3 -3
4 -12 1 -19z"/>
<path d="M3370 1700 c0 -11 5 -20 10 -20 6 0 10 9 10 20 0 11 -4 20 -10 20 -5
0 -10 -9 -10 -20z"/>
<path d="M4831 1694 c0 -11 3 -14 6 -6 3 7 2 16 -1 19 -3 4 -6 -2 -5 -13z"/>
<path d="M4634 1666 c30 -25 146 -69 155 -60 14 14 -123 84 -163 84 -19 -1
-19 -3 8 -24z"/>
<path d="M3330 1655 c0 -13 -7 -28 -15 -35 -8 -7 -15 -19 -15 -27 0 -11 -7
-13 -30 -8 -23 5 -30 3 -30 -9 0 -9 -4 -16 -9 -16 -19 0 -71 -62 -71 -85 0
-25 -46 -105 -60 -105 -4 0 -10 -14 -14 -30 -3 -20 -16 -37 -36 -48 -16 -9
-30 -23 -30 -30 0 -7 -8 -16 -17 -19 -10 -4 -34 -16 -53 -28 -19 -12 -56 -24
-82 -27 -40 -5 -134 -41 -148 -58 -22 -25 -60 -37 -106 -33 -58 6 -74 -7 -46
-35 10 -10 25 -29 34 -41 19 -27 38 -20 38 12 0 13 9 30 20 40 22 19 40 22 40
8 0 -6 26 -18 58 -27 31 -9 76 -26 99 -36 64 -29 71 -13 18 38 -26 24 -41 44
-34 45 8 0 22 2 33 4 10 2 27 -1 36 -8 20 -12 50 5 50 28 0 7 15 29 33 48 17
18 37 42 43 52 11 19 26 30 56 39 10 3 20 20 24 40 6 35 26 47 39 26 8 -13 27
-2 22 13 -4 12 20 36 36 37 4 0 7 -6 7 -14 0 -7 11 -16 25 -18 24 -5 39 5 40
26 0 5 6 11 13 14 17 5 15 -8 -5 -30 -15 -17 -15 -18 0 -18 10 0 17 4 17 9 0
5 7 17 16 26 13 12 14 19 5 28 -16 16 -14 49 5 75 12 18 13 26 4 37 -10 12
-10 22 1 47 8 18 12 40 11 48 -1 9 7 26 18 38 11 12 17 22 13 23 -4 0 -18 2
-30 3 -18 2 -23 -2 -23 -19z"/>
<path d="M4820 1578 c0 -4 5 -8 11 -8 6 0 23 -9 38 -19 15 -11 40 -23 57 -27
l29 -6 -22 23 c-23 23 -113 53 -113 37z"/>
<path d="M2498 1423 c6 -2 18 -2 25 0 6 3 1 5 -13 5 -14 0 -19 -2 -12 -5z"/>
<path d="M1205 1328 c-25 -15 -49 -38 -44 -43 2 -2 20 10 39 26 37 30 39 36 5
17z"/>
<path d="M2275 1220 c3 -5 10 -10 16 -10 5 0 9 5 9 10 0 6 -7 10 -16 10 -8 0
-12 -4 -9 -10z"/>
<path d="M2520 1080 c0 -5 5 -10 10 -10 6 0 10 5 10 10 0 6 -4 10 -10 10 -5 0
-10 -4 -10 -10z"/>
<path d="M3280 596 c0 -18 -28 -85 -75 -177 -19 -37 -39 -93 -44 -125 -6 -33
-16 -82 -24 -111 -13 -50 -13 -52 7 -55 26 -4 34 -49 12 -71 -22 -21 -20 -27
8 -27 13 0 26 -5 28 -11 2 -6 24 -13 50 -16 45 -5 46 -5 41 21 -4 19 0 31 13
41 18 13 18 15 2 43 -17 28 -17 31 2 55 17 22 18 26 5 37 -19 16 -19 44 0 64
8 8 15 19 15 24 0 6 -7 12 -15 16 -20 7 -19 40 1 61 15 15 15 17 0 34 -20 22
-20 48 0 68 14 14 13 18 -5 37 -26 28 -26 34 0 62 l21 22 -21 11 c-17 10 -21
9 -21 -3z"/>
<path d="M5040 273 c0 -20 7 -45 17 -55 14 -15 15 -25 6 -51 -6 -18 -8 -60 -4
-97 6 -62 7 -65 34 -68 l27 -3 0 125 c0 121 -1 126 -21 126 -14 0 -24 10 -32
30 -15 41 -27 38 -27 -7z"/>
<path d="M4186 291 c-4 -7 -5 -15 -2 -18 9 -9 19 4 14 18 -4 11 -6 11 -12 0z"/>
<path d="M615 282 c-6 -4 -31 -36 -57 -73 -25 -36 -53 -71 -62 -78 -18 -15
-22 -51 -6 -51 22 0 8 -20 -17 -26 -30 -7 -63 -31 -63 -46 0 -4 72 -8 160 -8
91 0 160 4 160 9 0 5 -10 22 -23 38 -38 46 -68 117 -75 182 -4 38 -11 58 -17
53z"/>
<path d="M2990 241 c-62 -23 -145 -77 -131 -85 38 -24 -32 -63 -95 -53 -18 3
-36 1 -39 -4 -4 -5 0 -9 8 -9 28 0 42 -29 30 -61 -13 -35 -4 -37 53 -13 40 17
90 15 139 -6 28 -12 32 -10 61 16 48 45 65 87 62 151 -4 74 -23 88 -88 64z"/>
<path d="M2492 219 c-7 -12 -11 -24 -8 -27 6 -6 35 27 36 41 0 14 -15 7 -28
-14z"/>
<path d="M2746 232 c-3 -6 1 -13 10 -16 23 -9 28 -2 10 13 -8 7 -17 8 -20 3z"/>
<path d="M2600 183 c0 -5 5 -15 10 -23 7 -12 12 -12 22 -2 10 10 10 15 -2 22
-18 12 -30 13 -30 3z"/>
<path d="M2616 84 c-7 -19 -8 -18 20 -32 15 -8 24 -8 32 0 19 19 14 35 -10 42
-33 8 -35 8 -42 -10z"/>
</g>
</svg>
